<svg xmlns="http://www.w3.org/2000/svg" viewBox="0 0 100 100">
    <rect width="100" height="100" rx="5" fill="#d1d1d1" />
    <circle cx="30" cy="40" r="20" fill="none" stroke="dimgray" stroke-width="4" />
    <path d="M10 80 c0 -20 40 -20 40 0" fill="none" stroke="dimgray" stroke-width="4" />
    <circle cx="50" cy="45" r="20" fill="#d1d1d1" stroke="dimgray" stroke-width="4" />
    <path d="M30 85 c0 -20 40 -20 40 0" fill="#d1d1d1" stroke="dimgray" stroke-width="4" />
    <!-- <rect width="20" height="4" x="70" y="18" rx="1" fill="dimgray" />
    <rect width="4" height="20" x="78" y="10" rx="1" fill="dimgray" /> -->
    <!-- <path d="M90 15 q0 -2.5 -2.5 -2.5 q-2.5 0 -2.5 2.5 v5 q0 2.5 -5 2.5 c-5 0 -5 15 0 15 h7.5 q2.5 0 2.5 -2.5 " stroke="dimgray" stroke-width="4" /> -->
    <path d="M70 20 l5 5 l15 -15" stroke="dimgray" stroke-width="4" fill="none" />
</svg>
